<?xml version="1.0" encoding="UTF-8"?>
<svg width="226.72" height="224.09" version="1.1" viewBox="0 0 59.987 59.29" xmlns="http://www.w3.org/2000/svg">
 <g transform="translate(-4.363,-3.6406)">
  <path id="a" d="m34.294 62.931 4.116-1.8543 5.2657-3.6543 12.193-30.107-21.539-14.825-22.781 8.8134 14.361 36.526 4.0811 3.2466z" fill="#4288f5"/>
  <path id="b" d="m55.869 27.315-21.539-14.825-22.781 8.8134 22.745 12.076z" fill="#8eb8f9"/>
  <path id="c" d="m34.33 12.49-22.781 8.8134 14.361 36.526 4.0817 3.2472 4.303 1.8543z" fill="#1b53a9" opacity=".41204"/>
  <g fill="#fff">
   <path id="d" d="m34.294 3.6406 30.056 21.808-18.08 32.046-7.8601 3.5824 4.3883-3.7663 11.873-29.915-20.377-13.992z"/>
   <path id="e" d="m34.294 3.6406-4.0302 6.6945c1.6957 3.2113 0.3987 3.0991 4.0302 3.0992 3.1372 1.65e-4 2.0376 0.38131 3.8802-2.1577z"/>
   <path id="f" d="m34.294 3.6406-29.931 15.803 18.143 37.949 7.4849 3.6842-3.5684-3.5272-13.949-36.168 21.82-7.9778z"/>
  </g>
 </g>
</svg>
