<?xml version="1.0" encoding="UTF-8" standalone="no"?>
<svg
   width="226.72363"
   height="224.09081"
   version="1.1"
   viewBox="0 0 59.986999 59.2904"
   id="svg66"
   sodipodi:docname="prism.svg"
   inkscape:version="1.2.2 (b0a8486541, 2022-12-01)"
   xmlns:inkscape="http://www.inkscape.org/namespaces/inkscape"
   xmlns:sodipodi="http://sodipodi.sourceforge.net/DTD/sodipodi-0.dtd"
   xmlns="http://www.w3.org/2000/svg"
   xmlns:svg="http://www.w3.org/2000/svg">
  <defs
     id="defs70" />
  <sodipodi:namedview
     id="namedview68"
     pagecolor="#ffffff"
     bordercolor="#666666"
     borderopacity="1.0"
     inkscape:showpageshadow="2"
     inkscape:pageopacity="0.0"
     inkscape:pagecheckerboard="0"
     inkscape:deskcolor="#d1d1d1"
     showgrid="false"
     inkscape:zoom="2.0058594"
     inkscape:cx="110.67575"
     inkscape:cy="133.3593"
     inkscape:window-width="1452"
     inkscape:window-height="1230"
     inkscape:window-x="907"
     inkscape:window-y="98"
     inkscape:window-maximized="0"
     inkscape:current-layer="svg66" />
  <g
     id="g307"
     inkscape:label="prism"
     transform="translate(-4.363,-3.6406)"
     inkscape:export-filename="g307.svg"
     inkscape:export-xdpi="96"
     inkscape:export-ydpi="96">
    <path
       id="prism_dark"
       d="m 34.294,62.931 4.116,-1.8543 5.2657,-3.6543 12.193,-30.107 -21.539,-14.825 -22.781,8.8134 14.361,36.526 4.0811,3.2466 z"
       style="fill:#4288f5" />
    <path
       id="prism_light"
       d="M 55.869,27.315 34.33,12.49 11.549,21.3034 34.294,33.3794 Z"
       style="fill:#8eb8f9" />
    <path
       id="prism_shadow"
       d="m 34.33,12.49 -22.781,8.8134 14.361,36.526 4.0817,3.2472 4.303,1.8543 z"
       style="opacity:0.41204;fill:#1b53a9" />
  </g>
  <g
     id="g302"
     inkscape:label="caliper"
     transform="translate(-4.363,-3.6406)">
    <path
       id="caliper_right"
       d="m 34.294,3.6406 30.056,21.808 -18.08,32.046 -7.8601,3.5824 4.3883,-3.7663 11.873,-29.915 -20.377,-13.992 z"
       style="fill:#212121" />
    <path
       id="caliper_joint"
       d="m 34.294,3.6406 -4.0302,6.6945 c 1.6957,3.2113 0.3987,3.0991 4.0302,3.0992 3.1372,1.65e-4 2.0376,0.38131 3.8802,-2.1577 z"
       style="fill:#212121" />
    <path
       id="caliper_left"
       d="m 34.294,3.6406 -29.931,15.803 18.143,37.949 7.4849,3.6842 -3.5684,-3.5272 -13.949,-36.168 21.82,-7.9778 z"
       style="fill:#212121" />
  </g>
</svg>
