<svg width="256" height="256" version="1.1" viewBox="0 0 67.733 67.733" xmlns="http://www.w3.org/2000/svg">
 <path id="prism_dark" d="m34.294 62.931 4.116-1.8543 5.2657-3.6543 12.193-30.107-21.539-14.825-22.781 8.8134 14.361 36.526 4.0811 3.2466z" style="fill:#4288f5"/>
 <path id="prism_light" d="m55.869 27.315-21.539-14.825-22.781 8.8134 22.745 12.076z" style="fill:#8eb8f9"/>
 <path id="prism_shadow" d="m34.33 12.49-22.781 8.8134 14.361 36.526 4.0817 3.2472 4.303 1.8543z" style="fill:#1b53a9;opacity:.41204"/>
 <path id="caliper_right" d="m34.294 3.6406 30.056 21.808-18.08 32.046-7.8601 3.5824 4.3883-3.7663 11.873-29.915-20.377-13.992z" style="fill:#212121"/>
 <path id="caliper_joint" d="m34.294 3.6406-4.0302 6.6945c1.6957 3.2113 0.3987 3.0991 4.0302 3.0992 3.1372 1.65e-4 2.0376 0.38131 3.8802-2.1577z" style="fill:#212121"/>
 <path id="caliper_left" d="m34.294 3.6406-29.931 15.803 18.143 37.949 7.4849 3.6842-3.5684-3.5272-13.949-36.168 21.82-7.9778z" style="fill:#212121"/>
</svg>
